<?xml version="1.0" encoding="UTF-8" standalone="no"?>
<!DOCTYPE svg PUBLIC "-//W3C//DTD SVG 1.1//EN" "http://www.w3.org/Graphics/SVG/1.1/DTD/svg11.dtd">
<svg width="100%" height="100%" viewBox="0 0 23 21" version="1.1" xmlns="http://www.w3.org/2000/svg" xmlns:xlink="http://www.w3.org/1999/xlink" xml:space="preserve" xmlns:serif="http://www.serif.com/" style="fill-rule:evenodd;clip-rule:evenodd;stroke-linejoin:round;stroke-miterlimit:2;">
    <g id="Trunk" transform="matrix(1.06846,0,0,1.06846,-0.784426,-1.38053)">
        <path d="M11.657,9.934L10.924,10.393L9.969,13.681L8.425,13.039L8.028,13.262L8.137,13.628L9.895,14.527L10.363,17.48L8.79,19.682L10.594,19.307L10.682,20.165L11.933,19.728L12.111,19.267L12.3,19.599L14.091,20.073L14.352,19.575L15.811,19.805L13.938,18.712L11.746,14.79L11.949,13.307L14.029,13.728L14.307,13.487L14.067,13.262L12.093,12.255L12.154,10.601L11.657,9.934Z" style="fill:rgb(255,118,99);"/>
    </g>
    <g id="React-Leaves" serif:id="React Leaves">
        <path d="M9.587,2.912C9.149,2.962 8.755,3.045 8.422,3.155C7.665,3.405 7.205,3.816 7.127,4.3C7.048,4.785 7.354,5.319 7.993,5.796C8.275,6.006 8.622,6.209 9.022,6.395C8.847,6.8 8.721,7.182 8.65,7.526C8.488,8.307 8.614,8.91 8.994,9.22C9.375,9.531 9.991,9.533 10.723,9.218C11.046,9.079 11.395,8.879 11.757,8.626C12.02,8.981 12.288,9.28 12.55,9.514C13.145,10.044 13.73,10.237 14.189,10.063C14.648,9.889 14.958,9.356 15.051,8.565C15.093,8.215 15.094,7.813 15.056,7.374C15.494,7.323 15.888,7.241 16.222,7.131C16.978,6.88 17.438,6.47 17.517,5.985C17.595,5.501 17.289,4.966 16.65,4.49C16.368,4.279 16.021,4.077 15.621,3.89C15.796,3.485 15.922,3.104 15.993,2.759C16.155,1.979 16.029,1.376 15.649,1.065C15.268,0.755 14.652,0.753 13.92,1.068C13.597,1.207 13.248,1.406 12.887,1.659C12.624,1.305 12.356,1.005 12.093,0.771C11.498,0.241 10.913,0.048 10.454,0.223C9.995,0.397 9.685,0.929 9.592,1.721C9.551,2.07 9.549,2.472 9.587,2.912ZM13.18,7.405C12.828,7.763 12.472,8.082 12.123,8.354C12.365,8.68 12.612,8.956 12.855,9.172C13.087,9.38 13.314,9.53 13.529,9.61C13.709,9.677 13.877,9.692 14.027,9.635C14.177,9.578 14.293,9.455 14.383,9.286C14.491,9.084 14.561,8.82 14.597,8.511C14.635,8.188 14.636,7.818 14.601,7.414C14.159,7.441 13.682,7.439 13.18,7.405ZM9.441,6.577C9.28,6.949 9.164,7.301 9.098,7.619C9.035,7.924 9.018,8.196 9.056,8.422C9.089,8.611 9.159,8.764 9.284,8.866C9.408,8.967 9.573,9.006 9.764,8.999C9.993,8.992 10.256,8.921 10.542,8.797C10.841,8.669 11.162,8.485 11.495,8.252C11.25,7.883 11.013,7.469 10.792,7.018C10.305,6.892 9.852,6.742 9.441,6.577ZM11.374,7.154C11.531,7.45 11.694,7.726 11.861,7.98C12.1,7.792 12.343,7.581 12.585,7.35C12.385,7.327 12.182,7.299 11.977,7.266C11.772,7.233 11.571,7.195 11.374,7.154ZM14.365,6.018C14.245,6.18 14.119,6.342 13.988,6.503L13.988,6.503C13.857,6.663 13.724,6.819 13.589,6.969C13.924,6.981 14.245,6.978 14.549,6.96C14.505,6.659 14.444,6.344 14.365,6.018ZM11.642,3.353C11.951,3.38 12.269,3.419 12.593,3.471L12.593,3.471C12.916,3.524 13.23,3.587 13.532,3.659C13.663,3.941 13.788,4.236 13.905,4.542L13.905,4.542C14.021,4.848 14.123,5.152 14.211,5.449C14.034,5.704 13.841,5.959 13.634,6.213L13.634,6.213C13.426,6.467 13.215,6.707 13.001,6.933C12.692,6.906 12.374,6.867 12.05,6.814C11.727,6.762 11.413,6.699 11.111,6.626C10.98,6.345 10.855,6.05 10.739,5.744C10.622,5.437 10.52,5.134 10.432,4.836C10.61,4.582 10.803,4.326 11.01,4.072C11.217,3.818 11.429,3.578 11.642,3.353ZM15.428,4.304C15.231,4.7 14.99,5.113 14.71,5.53C14.844,6.014 14.942,6.482 15.004,6.92C15.407,6.874 15.769,6.798 16.078,6.696C16.374,6.598 16.617,6.477 16.794,6.331C16.941,6.209 17.039,6.071 17.065,5.912C17.091,5.754 17.041,5.592 16.94,5.429C16.819,5.235 16.626,5.043 16.376,4.856C16.116,4.662 15.796,4.476 15.428,4.304ZM10.106,5.328C9.928,5.611 9.77,5.891 9.634,6.163C9.916,6.276 10.22,6.38 10.542,6.475C10.461,6.29 10.384,6.1 10.311,5.906C10.237,5.712 10.169,5.519 10.106,5.328ZM12.472,4.217C12.983,4.3 13.331,4.782 13.248,5.293C13.165,5.804 12.682,6.152 12.171,6.069C11.66,5.986 11.313,5.504 11.396,4.993C11.478,4.481 11.961,4.134 12.472,4.217ZM9.639,3.365C9.236,3.412 8.874,3.487 8.565,3.589C8.27,3.687 8.026,3.808 7.849,3.955C7.702,4.077 7.604,4.215 7.578,4.373C7.553,4.532 7.602,4.694 7.703,4.856C7.824,5.051 8.017,5.243 8.267,5.429C8.527,5.624 8.847,5.81 9.215,5.982C9.412,5.585 9.653,5.172 9.933,4.755C9.799,4.271 9.701,3.803 9.639,3.365ZM14.102,3.811C14.182,3.996 14.259,4.185 14.332,4.379L14.333,4.379C14.406,4.573 14.474,4.767 14.537,4.958C14.715,4.674 14.873,4.394 15.009,4.123C14.727,4.01 14.423,3.905 14.102,3.811ZM11.054,3.316C10.719,3.304 10.398,3.308 10.095,3.326C10.138,3.626 10.199,3.942 10.278,4.267C10.398,4.105 10.524,3.944 10.655,3.783C10.786,3.622 10.919,3.467 11.054,3.316ZM15.202,3.709C15.363,3.336 15.479,2.985 15.545,2.666C15.608,2.361 15.625,2.09 15.587,1.864C15.554,1.675 15.484,1.521 15.359,1.42C15.235,1.318 15.07,1.28 14.879,1.286C14.65,1.294 14.387,1.365 14.101,1.488C13.802,1.617 13.481,1.8 13.148,2.033C13.393,2.402 13.63,2.817 13.851,3.268C14.338,3.394 14.792,3.543 15.202,3.709ZM12.782,2.306C12.543,2.493 12.3,2.704 12.058,2.935C12.258,2.958 12.461,2.986 12.666,3.02L12.666,3.02C12.871,3.053 13.072,3.09 13.269,3.132C13.112,2.836 12.949,2.559 12.782,2.306ZM12.52,1.931C12.278,1.605 12.031,1.329 11.789,1.113C11.556,0.906 11.329,0.755 11.114,0.676C10.935,0.609 10.766,0.593 10.616,0.65C10.466,0.707 10.351,0.831 10.26,1C10.152,1.202 10.083,1.465 10.046,1.775C10.008,2.097 10.007,2.467 10.042,2.872C10.484,2.844 10.962,2.846 11.463,2.88C11.815,2.522 12.171,2.204 12.52,1.931Z" style="fill:rgb(242,84,119);"/>
    </g>
    <g id="React-Leaves1" serif:id="React Leaves">
        <path d="M15.492,11.351C15.269,11.322 15.065,11.314 14.887,11.328C14.482,11.358 14.205,11.504 14.106,11.733C14.008,11.963 14.093,12.265 14.35,12.579C14.463,12.717 14.609,12.86 14.784,13.001C14.647,13.179 14.538,13.352 14.461,13.513C14.285,13.879 14.272,14.192 14.422,14.392C14.571,14.592 14.875,14.669 15.275,14.604C15.452,14.575 15.649,14.52 15.858,14.439C15.945,14.647 16.04,14.827 16.141,14.975C16.369,15.31 16.634,15.478 16.882,15.448C17.13,15.419 17.349,15.194 17.492,14.815C17.556,14.648 17.606,14.449 17.641,14.228C17.864,14.257 18.068,14.265 18.247,14.251C18.651,14.221 18.928,14.075 19.027,13.846C19.125,13.616 19.04,13.314 18.783,13.001C18.67,12.862 18.524,12.719 18.349,12.578C18.486,12.4 18.595,12.227 18.673,12.066C18.848,11.7 18.861,11.387 18.711,11.187C18.562,10.987 18.258,10.91 17.858,10.975C17.681,11.004 17.484,11.06 17.275,11.14C17.189,10.932 17.093,10.752 16.993,10.604C16.764,10.269 16.499,10.101 16.251,10.131C16.003,10.16 15.785,10.385 15.641,10.764C15.578,10.931 15.527,11.13 15.492,11.351ZM16.712,14.012C16.494,14.145 16.279,14.259 16.073,14.35C16.152,14.541 16.24,14.708 16.333,14.844C16.422,14.975 16.516,15.077 16.612,15.143C16.692,15.198 16.774,15.227 16.855,15.217C16.936,15.207 17.008,15.161 17.073,15.088C17.152,15.002 17.218,14.881 17.275,14.732C17.333,14.578 17.379,14.395 17.412,14.191C17.19,14.15 16.955,14.091 16.712,14.012ZM14.968,13.142C14.843,13.306 14.742,13.466 14.67,13.615C14.602,13.757 14.56,13.889 14.551,14.006C14.543,14.103 14.559,14.187 14.608,14.253C14.657,14.318 14.734,14.357 14.829,14.378C14.943,14.402 15.082,14.4 15.238,14.374C15.401,14.347 15.582,14.296 15.775,14.223C15.7,14.01 15.634,13.776 15.58,13.526C15.356,13.404 15.15,13.275 14.968,13.142ZM15.851,13.665C15.892,13.831 15.938,13.987 15.99,14.133C16.131,14.07 16.276,13.996 16.425,13.912C16.329,13.876 16.232,13.837 16.135,13.795C16.038,13.753 15.943,13.71 15.851,13.665ZM18.203,12.758C18.057,12.93 17.887,13.104 17.698,13.275C17.704,13.531 17.695,13.774 17.671,13.998C17.876,14.024 18.064,14.032 18.229,14.019C18.387,14.007 18.522,13.978 18.628,13.927C18.715,13.885 18.781,13.829 18.813,13.754C18.845,13.679 18.841,13.593 18.811,13.5C18.775,13.389 18.703,13.271 18.603,13.148C18.499,13.02 18.364,12.889 18.203,12.758ZM17.467,13.474C17.388,13.539 17.306,13.603 17.222,13.666C17.137,13.729 17.052,13.79 16.967,13.847C17.131,13.894 17.29,13.932 17.442,13.961C17.458,13.807 17.466,13.644 17.467,13.474ZM16.452,11.822C16.601,11.874 16.753,11.932 16.906,11.998L16.906,11.998C17.06,12.064 17.207,12.134 17.347,12.207C17.377,12.362 17.402,12.523 17.422,12.688L17.422,12.688C17.442,12.854 17.455,13.016 17.462,13.174C17.342,13.277 17.216,13.38 17.082,13.48C16.949,13.579 16.815,13.672 16.681,13.757C16.532,13.705 16.38,13.647 16.227,13.581C16.074,13.515 15.926,13.445 15.786,13.373C15.756,13.218 15.731,13.057 15.711,12.891C15.692,12.726 15.678,12.563 15.672,12.405C15.791,12.302 15.917,12.199 16.051,12.099C16.184,12 16.319,11.907 16.452,11.822ZM16.281,12.407C16.492,12.25 16.791,12.293 16.949,12.504C17.107,12.715 17.063,13.014 16.852,13.172C16.641,13.33 16.342,13.286 16.184,13.075C16.027,12.864 16.07,12.565 16.281,12.407ZM15.45,12.608C15.328,12.726 15.215,12.845 15.115,12.962C15.24,13.052 15.377,13.141 15.524,13.228C15.507,13.126 15.492,13.023 15.48,12.918C15.468,12.814 15.458,12.71 15.45,12.608ZM17.609,12.352C17.626,12.453 17.641,12.556 17.653,12.661L17.653,12.661C17.666,12.765 17.676,12.869 17.683,12.971C17.806,12.853 17.918,12.735 18.019,12.617C17.893,12.527 17.756,12.438 17.609,12.352ZM15.462,11.582C15.257,11.555 15.069,11.548 14.904,11.56C14.746,11.572 14.611,11.601 14.506,11.652C14.418,11.694 14.352,11.75 14.32,11.825C14.288,11.9 14.292,11.986 14.322,12.079C14.358,12.19 14.43,12.308 14.53,12.431C14.635,12.559 14.77,12.691 14.93,12.821C15.076,12.649 15.246,12.475 15.435,12.304C15.429,12.048 15.438,11.806 15.462,11.582ZM18.165,12.437C18.291,12.273 18.391,12.114 18.463,11.965C18.532,11.822 18.573,11.69 18.582,11.574C18.59,11.476 18.574,11.392 18.525,11.326C18.476,11.261 18.399,11.222 18.304,11.201C18.19,11.177 18.052,11.179 17.895,11.205C17.732,11.232 17.551,11.283 17.358,11.357C17.433,11.569 17.499,11.803 17.553,12.053C17.777,12.175 17.983,12.304 18.165,12.437ZM15.691,11.618C15.676,11.772 15.667,11.935 15.666,12.105C15.745,12.04 15.827,11.976 15.912,11.913C15.996,11.85 16.081,11.789 16.166,11.732C16.002,11.685 15.843,11.647 15.691,11.618ZM17.143,11.446C17.002,11.509 16.857,11.583 16.709,11.667C16.805,11.704 16.901,11.742 16.998,11.784L16.998,11.784C17.095,11.826 17.19,11.869 17.282,11.914C17.241,11.748 17.195,11.592 17.143,11.446ZM17.06,11.229C16.981,11.038 16.893,10.872 16.8,10.735C16.711,10.604 16.618,10.502 16.521,10.436C16.441,10.381 16.36,10.352 16.279,10.362C16.197,10.372 16.125,10.418 16.06,10.491C15.982,10.577 15.915,10.698 15.859,10.847C15.8,11.001 15.754,11.184 15.721,11.388C15.943,11.429 16.178,11.488 16.422,11.567C16.64,11.434 16.855,11.32 17.06,11.229Z" style="fill:rgb(242,84,119);"/>
    </g>
    <g id="React-Leaves2" serif:id="React Leaves">
        <path d="M5.966,10.555C5.812,10.438 5.663,10.344 5.524,10.278C5.21,10.128 4.94,10.118 4.768,10.247C4.597,10.377 4.532,10.638 4.589,10.982C4.614,11.134 4.663,11.303 4.732,11.483C4.554,11.558 4.399,11.64 4.272,11.728C3.985,11.925 3.841,12.154 3.868,12.367C3.894,12.58 4.088,12.767 4.414,12.89C4.558,12.944 4.729,12.986 4.92,13.016C4.895,13.208 4.889,13.383 4.901,13.537C4.928,13.884 5.055,14.123 5.253,14.207C5.45,14.291 5.709,14.216 5.979,13.995C6.097,13.897 6.22,13.771 6.341,13.62C6.495,13.737 6.644,13.83 6.783,13.896C7.097,14.047 7.367,14.056 7.538,13.927C7.71,13.798 7.775,13.536 7.718,13.192C7.693,13.041 7.644,12.871 7.575,12.691C7.753,12.617 7.908,12.534 8.035,12.447C8.322,12.25 8.465,12.021 8.439,11.808C8.413,11.595 8.219,11.407 7.893,11.285C7.749,11.231 7.578,11.188 7.387,11.159C7.411,10.967 7.418,10.791 7.406,10.638C7.378,10.29 7.252,10.052 7.054,9.968C6.857,9.884 6.597,9.958 6.328,10.18C6.209,10.278 6.087,10.404 5.966,10.555ZM5.118,13.041C5.096,13.217 5.09,13.379 5.101,13.521C5.112,13.657 5.137,13.773 5.181,13.863C5.218,13.939 5.266,13.995 5.331,14.022C5.396,14.05 5.469,14.046 5.549,14.02C5.644,13.989 5.746,13.927 5.851,13.84C5.961,13.75 6.074,13.633 6.185,13.495C6.037,13.37 5.887,13.224 5.739,13.062C5.519,13.068 5.311,13.061 5.118,13.041ZM7.388,12.764C7.206,12.829 7.005,12.887 6.79,12.933C6.686,13.127 6.575,13.304 6.462,13.461C6.603,13.569 6.741,13.654 6.869,13.716C6.992,13.774 7.106,13.81 7.206,13.817C7.289,13.823 7.362,13.809 7.418,13.767C7.474,13.725 7.508,13.659 7.525,13.577C7.546,13.479 7.543,13.36 7.52,13.225C7.497,13.085 7.452,12.929 7.388,12.764ZM6.533,12.983C6.446,12.998 6.358,13.011 6.268,13.022C6.178,13.033 6.088,13.041 6,13.048C6.102,13.153 6.205,13.25 6.306,13.336C6.384,13.228 6.46,13.11 6.533,12.983ZM5.245,12.435C5.205,12.576 5.173,12.713 5.149,12.844C5.281,12.857 5.421,12.864 5.568,12.864C5.512,12.796 5.456,12.726 5.401,12.653C5.347,12.581 5.295,12.508 5.245,12.435ZM6.481,11.316C6.571,11.418 6.659,11.527 6.745,11.642C6.832,11.756 6.912,11.871 6.985,11.986C6.941,12.114 6.891,12.245 6.835,12.377L6.835,12.377C6.779,12.509 6.72,12.636 6.657,12.757C6.524,12.783 6.386,12.805 6.243,12.823C6.101,12.84 5.961,12.852 5.826,12.858C5.736,12.756 5.648,12.647 5.561,12.533C5.475,12.418 5.395,12.303 5.322,12.189C5.366,12.06 5.415,11.929 5.472,11.797C5.528,11.666 5.587,11.539 5.65,11.418C5.783,11.391 5.921,11.369 6.063,11.352L6.064,11.352C6.206,11.334 6.346,11.323 6.481,11.316ZM4.81,11.667C4.646,11.736 4.503,11.812 4.385,11.893C4.273,11.97 4.185,12.05 4.129,12.133C4.082,12.203 4.058,12.273 4.066,12.342C4.075,12.412 4.115,12.474 4.178,12.53C4.252,12.597 4.357,12.654 4.484,12.702C4.618,12.752 4.775,12.791 4.95,12.819C4.985,12.628 5.036,12.425 5.102,12.216C4.987,12.029 4.889,11.844 4.81,11.667ZM7.119,12.206C7.088,12.289 7.055,12.372 7.02,12.455L7.02,12.456C6.984,12.539 6.947,12.621 6.909,12.7C7.051,12.664 7.186,12.624 7.311,12.579C7.256,12.458 7.192,12.333 7.119,12.206ZM7.357,11.356C7.322,11.547 7.271,11.749 7.204,11.959C7.32,12.146 7.418,12.331 7.497,12.507C7.661,12.438 7.804,12.362 7.921,12.282C8.034,12.205 8.121,12.124 8.178,12.041C8.225,11.972 8.249,11.902 8.241,11.832C8.232,11.762 8.192,11.7 8.129,11.644C8.055,11.577 7.95,11.52 7.822,11.472C7.689,11.423 7.532,11.383 7.357,11.356ZM6.104,11.68C6.329,11.652 6.533,11.813 6.561,12.037C6.588,12.262 6.428,12.467 6.203,12.495C5.978,12.522 5.773,12.362 5.746,12.137C5.718,11.912 5.879,11.707 6.104,11.68ZM5.398,11.474C5.256,11.51 5.121,11.551 4.996,11.595C5.051,11.716 5.115,11.841 5.188,11.969C5.219,11.886 5.252,11.803 5.287,11.719C5.323,11.636 5.36,11.554 5.398,11.474ZM6.739,11.31C6.795,11.378 6.851,11.449 6.905,11.521C6.96,11.594 7.012,11.667 7.062,11.739C7.102,11.598 7.134,11.462 7.158,11.331C7.026,11.318 6.886,11.311 6.739,11.31ZM5.845,10.713C5.704,10.606 5.566,10.52 5.438,10.459C5.315,10.4 5.201,10.364 5.101,10.357C5.018,10.351 4.945,10.365 4.889,10.407C4.833,10.45 4.799,10.516 4.782,10.598C4.761,10.696 4.764,10.815 4.786,10.949C4.81,11.09 4.854,11.245 4.918,11.411C5.101,11.346 5.302,11.288 5.517,11.241C5.621,11.048 5.732,10.871 5.845,10.713ZM6.001,10.839C5.923,10.947 5.847,11.065 5.773,11.192C5.86,11.177 5.949,11.164 6.039,11.153L6.039,11.153C6.129,11.142 6.219,11.133 6.306,11.127C6.204,11.021 6.102,10.925 6.001,10.839ZM7.189,11.133C7.211,10.957 7.217,10.795 7.206,10.654C7.195,10.518 7.169,10.401 7.126,10.311C7.089,10.236 7.041,10.18 6.976,10.152C6.911,10.125 6.837,10.129 6.758,10.155C6.662,10.186 6.561,10.248 6.455,10.334C6.346,10.425 6.233,10.541 6.122,10.68C6.27,10.805 6.42,10.95 6.568,11.113C6.787,11.106 6.996,11.114 7.189,11.133Z" style="fill:rgb(242,84,119);"/>
    </g>
</svg>
